# xmcd
# 
# Track frame offsets:
#     150
#     19528
#     39441
#     59577
#     78546
#     98319
# 
# Disc length: 1599
# 
# Revision: 0
# Processed by: cddbd v1.5.2PL0 Copyright (c) Steve Scherf et al.
# Submitted via: fre:ac v1.0.17
# 
DISCID=3b063d06
DTITLE=kleine Prinzessin - Gute Nacht
DYEAR=2010
DGENRE=Hörspiel
TTITLE0=Ich will nicht ins Bett Teil 1
TTITLE1=Ich will nicht ins Bett Teil 2
TTITLE2=Ich lass mich nicht kämmen Teil 1
TTITLE3=Ich lass mich nicht kämmen Teil 2
TTITLE4=Ich will eine Trompete Teil 1
TTITLE5=Ich will eine Trompete Teil 2
EXTD=
EXTT0=
EXTT1=
EXTT2=
EXTT3=
EXTT4=
EXTT5=
PLAYORDER=
